<?xml version="1.0" encoding="UTF-8"?>
<svg id="Layer_1" xmlns="http://www.w3.org/2000/svg" version="1.1" viewBox="0 0 100 100">
  <!-- Generator: Adobe Illustrator 29.6.1, SVG Export Plug-In . SVG Version: 2.1.1 Build 9)  -->
  <defs>
    <style>
      .st0 {
        fill: #fff;
      }
    </style>
  </defs>
  <path class="st0" d="M82,8H18c-5.52,0-10,4.48-10,10v64c0,5.52,4.48,10,10,10h64c5.52,0,10-4.48,10-10V18c0-5.52-4.48-10-10-10ZM34,40v38h-12v-38h12ZM22,28.94c0-2.8,2.4-4.94,6-4.94s5.86,2.14,6,4.94c0,2.8-2.24,5.06-6,5.06s-6-2.26-6-5.06ZM78,78h-12v-20c0-4-2-8-7-8.08h-.16c-4.84,0-6.84,4.12-6.84,8.08v20h-12v-38h12v5.12s3.86-5.12,11.62-5.12,14.38,5.46,14.38,16.52v21.48Z"/>
</svg>