<svg width="240" height="240" viewBox="0 0 240 240" fill="none" xmlns="http://www.w3.org/2000/svg">
<mask id="mask0_126_330" style="mask-type:alpha" maskUnits="userSpaceOnUse" x="0" y="0" width="240" height="240">
<rect x="0.5" y="0.5" width="239" height="239" fill="#D9D9D9" stroke="black"/>
</mask>
<g mask="url(#mask0_126_330)">
<path d="M70.2227 0.5H207.556C210.673 0.500023 213.261 1.5475 215.356 3.63965C217.451 5.73176 218.5 8.31679 218.5 11.4287V57.1426C218.5 60.2545 217.451 62.8395 215.356 64.9316C213.261 67.0238 210.673 68.0713 207.556 68.0713H70.2227C67.1058 68.0713 64.516 67.0238 62.4209 64.9316C60.3261 62.8396 59.2773 60.2544 59.2773 57.1426V45.2139H35.3887V91.9287H127.444C133.605 91.9287 138.868 94.1138 143.257 98.4971C147.646 102.88 149.833 108.134 149.833 114.286V149.071H161.777C164.894 149.071 167.484 150.119 169.579 152.211C171.674 154.303 172.723 156.888 172.723 160V228.571C172.723 231.683 171.674 234.268 169.579 236.36C167.484 238.453 164.894 239.5 161.777 239.5H116C112.883 239.5 110.294 238.453 108.199 236.36C106.104 234.268 105.056 231.683 105.056 228.571V160C105.056 156.888 106.104 154.303 108.199 152.211C110.294 150.119 112.883 149.071 116 149.071H127.944V113.786H35.8887C29.7278 113.786 24.4664 111.601 20.0771 107.218C15.6879 102.835 13.5 97.5805 13.5 91.4287V45.7139C13.5001 39.5622 15.6879 34.3079 20.0771 29.9248C24.4664 25.5418 29.7279 23.3575 35.8887 23.3574H59.2773V11.4287C59.2773 8.3169 60.3261 5.73173 62.4209 3.63965C64.516 1.54748 67.1058 0.5 70.2227 0.5ZM126.944 217.643H150.833V170.929H126.944V217.643ZM81.167 46.2139H196.611V22.3574H81.167V46.2139Z" fill="white" stroke="black"/>
</g>
</svg>
